PathFileType	4	(X/Y/Z)	./resultDataOpenSim/trcMotMarkerGrf/sub10/qtm-04-03.trc
DataRate	CameraRate	NumFrames	NumMarkers	Units	OrigDataRate	OrigDataStartFrame	OrigNumFrames
250.000000	250.000000	12	24	m	250.000000	1	508
Frame#	Time	L.Toe.Tip			R.Toe.Tip			L.Ankle.Lat			R.Ankle.Lat			L.Ankle.Med			R.Ankle.Med			L.Heel			R.Heel			L.Knee.Lat			R.Knee.Lat			L.Knee.Med			R.Knee.Med			L.Thigh.Upper			R.Thigh.Upper			L.ASIS			R.ASIS			V.Sacral			L.Acromium			R.Acromium			C7			L.Elbow			R.Elbow			L.Wrist.Lat			R.Wrist.Lat
		X1	Y1	Z1	X2	Y2	Z2	X3	Y3	Z3	X4	Y4	Z4	X5	Y5	Z5	X6	Y6	Z6	X7	Y7	Z7	X8	Y8	Z8	X9	Y9	Z9	X10	Y10	Z10	X11	Y11	Z11	X12	Y12	Z12	X13	Y13	Z13	X14	Y14	Z14	X15	Y15	Z15	X16	Y16	Z16	X17	Y17	Z17	X18	Y18	Z18	X19	Y19	Z19	X20	Y20	Z20	X21	Y21	Z21	X22	Y22	Z22	X23	Y23	Z23	X24	Y24	Z24

1	0	-1.5349492	0.037460097	-0.21618981	-0.95601571	0.11401553	-0.06135759	-1.6669346	0.063807925	-0.24126284	-1.0885661	0.068301103	-0.049074249	-1.6590399	0.086520607	-0.15877752	-1.0738303	0.10804149	-0.12718858	NaN	NaN	NaN	-1.1158856	0.027376111	-0.10598326	-1.5255041	0.4263269	-0.27553827	-1.2186069	0.44818607	-0.0038429837	-1.5256573	0.40430538	-0.15440567	-1.2026363	0.45821582	-0.13362855	-1.4275688	0.8078653	-0.33586028	-1.3666693	0.83750669	0.047217048	-1.3528516	0.91407569	-0.28016519	-1.3151442	0.9324588	-0.037774331	-1.5329355	0.93166281	-0.12667257	-1.3736671	1.3772799	-0.31869495	-1.3973011	1.3870916	0.0041206966	-1.4642475	1.4190459	-0.16871832	-1.3855647	1.0328776	-0.37015132	NaN	NaN	NaN	-1.1917184	0.88839069	-0.30719591	-1.4643328	0.86236601	0.11740892
2	0.004	-1.5349218	0.037401172	-0.21620166	-0.94500399	0.11759789	-0.062317374	-1.666622	0.064085416	-0.24110719	-1.076694	0.069381994	-0.04850207	-1.6591145	0.086609548	-0.15878725	-1.0631267	0.10949597	-0.12669319	NaN	NaN	NaN	-1.1036727	0.028129571	-0.10513245	-1.5231353	0.42574107	-0.27551575	-1.214523	0.4467733	-0.0027773953	-1.5230798	0.40362131	-0.15436946	-1.1993129	0.45604525	-0.13282198	-1.4241616	0.8069527	-0.33596474	-1.3619124	0.83627274	0.047218318	-1.3491393	0.91317287	-0.28023318	-1.3106103	0.9314297	-0.037905399	-1.5282272	0.93060408	-0.12589253	-1.369284	1.3761378	-0.31835169	-1.3936597	1.385825	0.004392668	-1.4601706	1.417908	-0.16834338	-1.3797083	1.0313215	-0.37011759	NaN	NaN	NaN	-1.1847463	0.88909692	-0.30574742	-1.4663207	0.8603986	0.11655034
3	0.008	-1.5349017	0.037346556	-0.21621392	-0.93403595	0.12109613	-0.063223978	-1.6663668	0.064370412	-0.24098693	-1.0649886	0.070512866	-0.047844204	-1.6594593	0.086632234	-0.1588809	-1.0525217	0.11096698	-0.12613385	NaN	NaN	NaN	-1.0916404	0.028931726	-0.10411162	-1.5207479	0.42515497	-0.27550447	-1.2101501	0.44549793	-0.0017024998	-1.5205693	0.40296404	-0.15432531	-1.1959568	0.45389785	-0.13197108	-1.4207003	0.806062	-0.3359762	-1.3571709	0.8350151	0.047234503	-1.3454019	0.91225668	-0.28029099	-1.3060226	0.93039385	-0.03801598	-1.5235323	0.92951992	-0.12509351	-1.3649022	1.3750023	-0.31798693	-1.3899659	1.3845634	0.0047004532	-1.4561109	1.4167513	-0.16804949	-1.3738406	1.0299534	-0.37011169	NaN	NaN	NaN	-1.1777705	0.88980591	-0.30430094	-1.4666494	0.85874019	0.11601571
4	0.012	-1.5348928	0.037302478	-0.21622454	-0.92324981	0.12444495	-0.064089782	-1.6661867	0.064676171	-0.24091581	-1.0535585	0.071728923	-0.047045638	-1.6599296	0.086651679	-0.15901445	-1.0421178	0.11244524	-0.12548267	NaN	NaN	NaN	-1.0798991	0.029796728	-0.102819	-1.518342	0.42457165	-0.27550376	-1.2051211	0.44450067	-0.00055009923	-1.5181123	0.40233018	-0.1542756	-1.1925213	0.4517975	-0.13105719	-1.4171522	0.80519345	-0.33586008	-1.3524077	0.83373535	0.047274938	-1.3416214	0.91131284	-0.28032663	-1.3013812	0.92934158	-0.038100133	-1.5188728	0.92839574	-0.12427369	-1.3605114	1.3738666	-0.31760353	-1.3861579	1.3832988	0.0050470632	-1.4520502	1.4155743	-0.16782196	-1.3679584	1.0287663	-0.3700955	NaN	NaN	NaN	-1.1707681	0.8905144	-0.30284457	-1.4651035	0.85744875	0.11584987
5	0.016	-1.5348982	0.037270437	-0.2162319	-0.91283214	0.12756647	-0.064914328	-1.666053	0.065026969	-0.24087983	-1.0424905	0.073014855	-0.046108058	-1.6600567	0.086823051	-0.15904727	-1.0320687	0.1138811	-0.12473788	NaN	NaN	NaN	-1.0685491	0.030699759	-0.10128049	-1.515925	0.42399457	-0.27550995	-1.1991966	0.44385786	0.000743044	-1.5156516	0.40169339	-0.15422739	-1.1889573	0.44977375	-0.13008971	-1.4135321	0.80433385	-0.33565442	-1.3475796	0.8324418	0.047347316	-1.3377969	0.91034073	-0.28033038	-1.2967357	0.9282672	-0.038173025	-1.5142842	0.92723547	-0.12345043	-1.3561042	1.3727249	-0.31721942	-1.3822684	1.3820289	0.0054082332	-1.4479661	1.4143908	-0.16760687	-1.3620684	1.0276412	-0.36999208	NaN	NaN	NaN	-1.1637398	0.89122062	-0.30136526	-1.4625212	0.85639082	0.11590166
6	0.02	-1.5349185	0.037244797	-0.2162371	-0.90284155	0.13038448	-0.065614388	-1.6659271	0.06543888	-0.24086003	-1.0318802	0.074296572	-0.045092925	-1.6595329	0.087239045	-0.15889599	-1.0224845	0.1152179	-0.12390987	NaN	NaN	NaN	-1.0576922	0.031601349	-0.099611701	-1.5134965	0.42342605	-0.27553267	-1.1926614	0.44346481	0.0021147994	-1.5131546	0.40104401	-0.15418237	-1.1852392	0.44784925	-0.12908696	-1.4098869	0.80347688	-0.33542593	-1.3426773	0.83112751	0.04745127	-1.3339325	0.90935008	-0.28030821	-1.2921042	0.92716899	-0.03824496	-1.5097758	0.92607026	-0.12262875	-1.3516724	1.371588	-0.31684296	-1.3783724	1.3807764	0.0057664402	-1.4438549	1.4132105	-0.16739814	-1.3561693	1.0265004	-0.36974914	NaN	NaN	NaN	-1.1567344	0.89192308	-0.29988517	-1.459704	0.85542673	0.116026
7	0.024	-1.5349453	0.037219968	-0.21624337	-0.893214	0.13286479	-0.066133982	-1.6657924	0.065895785	-0.24085708	-1.0218255	0.075483974	-0.044076018	-1.6585155	0.08784004	-0.15861963	-1.0133537	0.11643211	-0.12301394	NaN	NaN	NaN	-1.0473929	0.032466201	-0.097916971	-1.5110532	0.42287368	-0.27557991	-1.1862023	0.44309267	0.0034070312	-1.5106085	0.40040023	-0.1541453	-1.1813981	0.44603532	-0.12806509	-1.4062583	0.80263	-0.33522448	-1.3377344	0.82979013	0.047570496	-1.3300343	0.90834856	-0.28028174	-1.2874715	0.92604663	-0.038305372	-1.5053164	0.92494199	-0.12178927	-1.3472086	1.3704757	-0.31647014	-1.3744573	1.3795673	0.0061258252	-1.4397174	1.4120362	-0.16719834	-1.3502614	1.0253351	-0.36936834	NaN	NaN	NaN	-1.1498166	0.89261609	-0.29845185	-1.4570409	0.85448042	0.11613565
8	0.028	-1.5349643	0.037193814	-0.21625526	-0.88390819	0.13500355	-0.066538456	-1.6656404	0.06636676	-0.24088035	-1.0123537	0.076523129	-0.043078603	-1.6574581	0.088474971	-0.15835021	-1.0046215	0.11751858	-0.12205461	NaN	NaN	NaN	-1.0376667	0.033264527	-0.09624949	-1.508588	0.42234942	-0.27563623	-1.1802379	0.44260888	0.0045286739	-1.5079909	0.39977109	-0.15413279	-1.1774809	0.44434151	-0.12703647	-1.4026477	0.8017962	-0.33506547	-1.3328075	0.82844548	0.047687599	-1.3261078	0.90733816	-0.28026577	-1.282845	0.92489794	-0.038347652	-1.5008656	0.92384375	-0.12093278	-1.3427124	1.3693933	-0.31609517	-1.3704689	1.3783947	0.0064945471	-1.4355387	1.410871	-0.16696492	-1.344351	1.0241655	-0.36888851	-1.5375994	1.0724942	0.044597791	-1.1429848	0.89330119	-0.29706476	-1.4546068	0.85352138	0.11618936
9	0.032	-1.5349659	0.037165268	-0.21627621	-0.87497981	0.13678389	-0.066915776	-1.6654574	0.066840487	-0.24092496	-1.0034029	0.077403371	-0.042058829	-1.6566991	0.089036618	-0.15817123	-0.99631723	0.11843852	-0.12103159	NaN	NaN	NaN	-1.0285171	0.033962891	-0.094631307	-1.5060956	0.42185645	-0.27567989	-1.1747142	0.44203831	0.0054961521	-1.5052885	0.39914274	-0.15415605	-1.1734695	0.44278477	-0.12601326	-1.3990214	0.80096395	-0.33493392	-1.3279395	0.8271107	0.047795333	-1.3221481	0.90631915	-0.28025342	-1.2782359	0.92372091	-0.038378999	-1.4964064	0.92271216	-0.12010567	-1.3381903	1.3683285	-0.31571599	-1.3664179	1.3772307	0.0068669246	-1.4313017	1.4097194	-0.16665946	-1.3384469	1.0230122	-0.36835166	-1.5340652	1.0713558	0.044205689	-1.1361661	0.89398843	-0.29566554	-1.4523404	0.8525405	0.11617865
10	0.036	-1.5349497	0.037134509	-0.21630578	-0.86654634	0.13816409	-0.067271257	-1.6652468	0.067339026	-0.24097604	-0.99490799	0.07812677	-0.040968404	-1.6562603	0.089527174	-0.15807984	-0.98854938	0.11911986	-0.11995792	NaN	NaN	NaN	-1.0199543	0.03452511	-0.093060605	-1.5035778	0.42138435	-0.27570824	-1.1694263	0.44145728	0.00634686	-1.5025167	0.39850859	-0.15420436	-1.1692918	0.44139007	-0.12500999	-1.3953516	0.80012588	-0.33480494	-1.3231079	0.82579412	0.047898571	-1.3181376	0.90529366	-0.28022761	-1.273609	0.92252184	-0.038400342	-1.4919394	0.92150995	-0.11934554	-1.3336495	1.3672746	-0.31533325	-1.362351	1.3760682	0.0072362782	-1.4270087	1.4085855	-0.16630497	-1.3325585	1.0218855	-0.36778148	-1.5305446	1.0702292	0.043814542	-1.1293234	0.89468064	-0.29422785	-1.4501847	0.85153734	0.11610941
11	0.04	-1.5349219	0.037103978	-0.21634062	-0.85870553	0.13910027	-0.067553736	-1.66503	0.067905407	-0.24102648	-0.98686654	0.078682847	-0.03979619	-1.6559912	0.09000933	-0.15803981	-0.9813531	0.11952833	-0.11885285	NaN	NaN	NaN	-1.0119878	0.034926994	-0.091519597	-1.501037	0.42092569	-0.27573314	-1.1641548	0.44094836	0.0071085211	-1.4997068	0.39788844	-0.15425788	-1.1649042	0.44018567	-0.12403924	-1.3916402	0.79929181	-0.33465892	-1.3181699	0.82451729	0.048028058	-1.3140685	0.90426182	-0.28018481	-1.2689209	0.92131302	-0.038408761	-1.4874611	0.92027148	-0.11863626	-1.3290924	1.3662435	-0.31494701	-1.3582684	1.3749318	0.0076123434	-1.4226766	1.407475	-0.16595963	-1.3266925	1.0207847	-0.36718027	-1.5270048	1.0691369	0.043432822	-1.1225175	0.89536964	-0.29280465	-1.4480289	0.85052992	0.11603029
12	0.044	-1.5348894	0.037076336	-0.21637748	-0.85145545	0.13957682	-0.067703806	-1.664806	0.068565165	-0.24108293	-0.97931313	0.07905312	-0.038558585	-1.6557585	0.090535204	-0.15802865	-0.9746073	0.11970151	-0.11772268	NaN	NaN	NaN	-1.0046167	0.035161244	-0.08998702	-1.4984703	0.42048971	-0.27576616	-1.1586447	0.4406027	0.0078165569	-1.4968803	0.39731039	-0.15430278	-1.1603105	0.43919567	-0.12311019	-1.3879048	0.7984779	-0.33448976	-1.3129604	0.82331832	0.048222688	-1.3099772	0.90321272	-0.28016076	-1.2641785	0.92009933	-0.038416208	-1.4829602	0.9190561	-0.11793799	-1.3245122	1.365249	-0.31455707	-1.3541279	1.373843	0.0080096409	-1.4183161	1.4063934	-0.1656509	-1.3208481	1.0197073	-0.36654136	-1.5234163	1.0680983	0.043048235	-1.1158258	0.89604718	-0.29145839	-1.4457406	0.84954542	0.11600404
